<?xml version="1.0" encoding="utf-8"?>
<!-- Generator: Adobe Illustrator 26.3.1, SVG Export Plug-In . SVG Version: 6.00 Build 0)  -->
<svg version="1.1" id="Layer_1" xmlns="http://www.w3.org/2000/svg" xmlns:xlink="http://www.w3.org/1999/xlink" x="0px" y="0px"
	 viewBox="0 0 171.2 80.8" style="enable-background:new 0 0 171.2 80.8;" xml:space="preserve">
<style type="text/css">
	.st0{fill:#CA006F;}
</style>
<g>
	<path class="st0" d="M3,0.3h31.2c1.3,0,2.4,1.1,2.4,2.4v4.5c0,1.3-1.1,2.4-2.4,2.4c0,0,0,0,0,0H20.6c-0.2,0-0.4,0.2-0.4,0.3
		c0,0.2,0.1,0.3,0.2,0.3L35,15.9c0.9,0.4,1.5,1.2,1.5,2.2v0.5l0,0c0,1-0.6,1.9-1.5,2.2l-14.5,5.5c-0.2,0.1-0.3,0.3-0.2,0.5
		c0.1,0.1,0.2,0.2,0.3,0.2h13.6c1.3,0,2.4,1.1,2.4,2.4v4.5c0,1.3-1.1,2.4-2.4,2.4l0,0H3c-1.3,0-2.4-1.1-2.4-2.4l0,0V30
		c0-2.2,1.4-4.3,3.5-5.1l16.5-6.2c0.2-0.1,0.3-0.3,0.2-0.5c0-0.1-0.1-0.2-0.2-0.2L4.1,11.8C2,11,0.6,9,0.6,6.7v-4
		C0.6,1.4,1.7,0.3,3,0.3z"/>
	<g>
		<path class="st0" d="M54.1,48h-3.4c-1.1,0-2-0.9-2-2v-0.9c0-0.4,0.3-0.6,0.6-0.6H64c0.4,0,0.6,0.3,0.6,0.6V46c0,1.1-0.9,2-2,2
			h-3.4c-0.2,0-0.4,0.2-0.4,0.4c0,0,0,0,0,0v15.2c0,0.4-0.3,0.6-0.6,0.6h-3c-0.4,0-0.6-0.3-0.6-0.6V48.4C54.5,48.2,54.3,48,54.1,48
			L54.1,48z"/>
		<path class="st0" d="M67.7,44.4H70c0.4,0,0.6,0.3,0.6,0.6v2.3c0,0.4-0.3,0.6-0.6,0.6h-2.4c-0.4,0-0.6-0.3-0.6-0.6V45
			C67,44.7,67.3,44.4,67.7,44.4z M67.4,50.3h2.8c0.4,0,0.6,0.3,0.6,0.6v12.6c0,0.4-0.3,0.6-0.6,0.6h-2.8c-0.4,0-0.6-0.3-0.6-0.6V51
			C66.8,50.6,67.1,50.3,67.4,50.3L67.4,50.3L67.4,50.3z"/>
		<path class="st0" d="M82,55.3c-0.2,0-0.4-0.2-0.4-0.4c-0.1-0.8-0.4-2.2-1.7-2.2c-1.9,0-2.1,2.9-2.1,4.4c0,0.8,0.1,3.2,1,4.2
			c0.3,0.3,0.7,0.5,1.1,0.5c0.4,0,1.6-0.2,1.8-2.3c0-0.2,0.2-0.4,0.4-0.4H85c0.4,0,0.6,0.3,0.6,0.6c0,0,0,0,0,0.1
			c-0.1,1.3-0.7,2.5-1.7,3.4c-1,0.8-2.2,1.3-3.9,1.3c-1.8,0-3.5-0.4-4.7-1.8c-1.2-1.4-1.8-3.2-1.8-5.5c0-6.3,4.6-7.2,6.5-7.2
			c2.4,0,5.2,1.2,5.6,4.5c0,0.4-0.2,0.7-0.6,0.7c0,0-0.1,0-0.1,0L82,55.3z"/>
		<path class="st0" d="M89,44.4h2.8c0.4,0,0.6,0.3,0.6,0.6v0v10.6c0,0.1,0,0.1,0.1,0.1c0,0,0.1,0,0.1-0.1l3.8-5.2
			c0.1-0.2,0.3-0.3,0.5-0.3h3.6c0.2,0,0.3,0.1,0.3,0.3c0,0.1,0,0.2-0.1,0.2l-4,5.1c-0.2,0.2-0.2,0.5,0,0.7l4.5,7
			c0.1,0.2,0.1,0.4-0.1,0.5c-0.1,0-0.1,0.1-0.2,0.1h-3.8c-0.2,0-0.4-0.1-0.6-0.3l-3.8-6.8c0-0.1-0.1-0.1-0.2,0c0,0-0.1,0.1-0.1,0.1
			v6.4c0,0.4-0.3,0.6-0.6,0.6l0,0H89c-0.4,0-0.6-0.3-0.6-0.6v0V45C88.4,44.7,88.7,44.4,89,44.4L89,44.4z"/>
		<path class="st0" d="M107,58.3c-0.2,0-0.4,0.2-0.4,0.4c0,1.1,0.4,3.3,2.8,3.3c0.9,0,1.9-0.3,2.3-1.6c0.1-0.2,0.2-0.3,0.4-0.3h2.6
			c0.4,0,0.6,0.3,0.6,0.6c0,0,0,0.1,0,0.1c-0.2,0.8-0.6,1.6-1.2,2.2c-1,1.1-2.8,1.6-4.8,1.6c-1.2,0-3.4-0.2-4.9-1.7
			c-1.3-1.3-1.8-3.2-1.8-5.4s0.6-4.9,2.9-6.5c1.2-0.8,2.5-1.2,3.9-1.2c2,0,4.3,0.8,5.6,3.3c0.6,1.4,0.9,2.9,0.8,4.4
			c0,0.3-0.3,0.6-0.6,0.6L107,58.3z M111.4,55.8c0.2,0,0.4-0.2,0.4-0.4c0,0,0,0,0,0c-0.1-0.9-0.4-2.6-2.4-2.6
			c-1.6,0-2.4,1.2-2.6,2.6c0,0.2,0.1,0.5,0.4,0.5c0,0,0,0,0.1,0H111.4z"/>
		<path class="st0" d="M127.7,63.5c0,0.3-0.2,0.6-0.5,0.6c-0.9,0.2-1.8,0.3-2.7,0.3c-4.1,0-4.1-2.6-4.1-3.7v-7.7
			c0-0.2-0.2-0.4-0.4-0.4c0,0,0,0,0,0h-1.6c-0.4,0-0.6-0.3-0.6-0.6v0v-1.4c0-0.4,0.3-0.6,0.6-0.6l0,0h1.6c0.2,0,0.4-0.2,0.4-0.4
			c0,0,0,0,0,0v-2.9c0-0.5,0.3-1,0.8-1.2l2.3-1c0.3-0.1,0.7,0,0.8,0.4c0,0.1,0,0.1,0,0.2v4.5c0,0.2,0.2,0.4,0.4,0.4h2.2
			c0.4,0,0.6,0.3,0.6,0.6v0V52c0,0.4-0.3,0.6-0.6,0.6l0,0h-2.2c-0.2,0-0.4,0.2-0.4,0.4l0,0v6.3c0,1.3,0,2.1,1.8,2.1
			c0.4,0,0.6,0,0.9,0c0.2,0,0.4,0.2,0.5,0.4c0,0,0,0,0,0L127.7,63.5z"/>
	</g>
	<path class="st0" d="M3,44.4h31.2c1.3,0,2.4,1.1,2.4,2.4v0v1.5c0,3-2.4,5.4-5.4,5.4h-5.9c-0.7,0-1.2,0.5-1.2,1.2l0,0v23.1
		c0,1.3-1.1,2.4-2.4,2.4c0,0,0,0,0,0h-6.1c-1.3,0-2.4-1.1-2.4-2.4c0,0,0,0,0,0V54.9c0-0.7-0.5-1.2-1.2-1.2c0,0,0,0,0,0H6
		c-3,0-5.4-2.4-5.4-5.4v-1.5C0.6,45.5,1.7,44.4,3,44.4C3,44.4,3,44.4,3,44.4z"/>
	<g>
		<g>
			<path class="st0" d="M92.6,25c0,0,0-1,0-1.9c0-0.4,0.2-0.7,0.6-0.7c0,0,0,0,0,0h2.6c0.3,0,0.6,0.3,0.6,0.6l0,0.8
				c0,0.1,0.1,0.2,0.2,0.2c0.1,0,0.1,0,0.2-0.1c0.6-0.8,1.8-1.9,4.1-1.9c2.7,0,3.9,1.6,4.2,2.6c0.3,0.9,0.4,1.6,0.4,4.1v6.8
				c0,0.4-0.3,0.6-0.6,0.6l0,0h-2.9c-0.4,0-0.6-0.3-0.6-0.6v0v-8c0-0.5,0-1-0.2-1.5c-0.4-0.7-1.1-1.2-2-1.2c-0.8,0-1.6,0.4-2.1,1.1
				c-0.4,0.6-0.5,1.4-0.5,2.1v7.5c0,0.4-0.3,0.6-0.6,0.6l0,0h-2.8c-0.4,0-0.6-0.3-0.6-0.6v0L92.6,25z"/>
			<path class="st0" d="M117.5,27.4c-0.2,0-0.4-0.2-0.4-0.4c-0.1-0.8-0.4-2.2-1.7-2.2c-1.9,0-2.1,2.9-2.1,4.4c0,0.8,0.1,3.2,1,4.2
				c0.3,0.3,0.7,0.5,1.1,0.5c0.4,0,1.6-0.2,1.8-2.3c0-0.2,0.2-0.4,0.4-0.4h2.9c0.4,0,0.6,0.3,0.6,0.6c0,0,0,0,0,0.1
				c-0.1,1.3-0.7,2.5-1.7,3.4c-1,0.9-2.2,1.3-3.9,1.3c-1.8,0-3.5-0.4-4.7-1.8c-1.2-1.4-1.8-3.2-1.8-5.5c0-6.3,4.6-7.2,6.5-7.2
				c2.4,0,5.2,1.2,5.6,4.5c0,0.4-0.2,0.7-0.6,0.7c0,0-0.1,0-0.1,0L117.5,27.4z"/>
			<path class="st0" d="M125.2,16.5h2.7c0.4,0,0.6,0.3,0.6,0.6c0,0,0,0,0,0v6.6c0,0.1,0.1,0.2,0.2,0.2c0.1,0,0.1,0,0.2-0.1
				c0.6-0.7,1.6-1.6,3.6-1.6c1.6,0,3.1,0.6,4,1.9c0.5,0.7,0.9,1.9,0.9,3.8v7.8c0,0.4-0.3,0.6-0.6,0.6h-2.7c-0.4,0-0.6-0.3-0.6-0.6v0
				V28c0-0.8,0-3-2.3-3c-1.2,0-2.6,0.7-2.6,2.8l0,7.8c0,0.4-0.3,0.6-0.6,0.6h-2.8c-0.4,0-0.6-0.3-0.6-0.6V17.2
				C124.5,16.8,124.8,16.5,125.2,16.5z"/>
			<path class="st0" d="M145.4,30.4c-0.2,0-0.4,0.2-0.4,0.4c0,0,0,0,0,0c0,1.1,0.4,3.3,2.8,3.3c0.9,0,1.9-0.3,2.3-1.6
				c0.1-0.2,0.2-0.3,0.4-0.3h2.6c0.4,0,0.6,0.3,0.6,0.6c0,0,0,0.1,0,0.1c-0.2,0.8-0.6,1.6-1.2,2.2c-1,1.1-2.8,1.6-4.8,1.6
				c-1.2,0-3.4-0.2-4.9-1.7c-1.3-1.3-1.8-3.2-1.8-5.4s0.6-4.9,2.9-6.5c1.2-0.8,2.5-1.2,3.9-1.2c2,0,4.3,0.8,5.6,3.3
				c0.6,1.4,0.9,2.9,0.8,4.4c0,0.3-0.3,0.6-0.6,0.6L145.4,30.4z M149.6,27.9c0.2,0,0.4-0.2,0.4-0.4c0,0,0,0,0,0
				c-0.1-0.9-0.4-2.6-2.4-2.6c-1.6,0-2.4,1.2-2.6,2.6c0,0.2,0.1,0.4,0.4,0.5c0,0,0,0,0.1,0H149.6z"/>
			<path class="st0" d="M157.7,25c0,0,0-1,0-1.9c0-0.4,0.2-0.7,0.6-0.7c0,0,0,0,0,0h2.6c0.3,0,0.6,0.3,0.6,0.6l0,0.8
				c0,0.1,0.1,0.2,0.2,0.2c0.1,0,0.1,0,0.2-0.1c0.6-0.8,1.8-1.9,4.1-1.9c2.7,0,3.9,1.6,4.2,2.6c0.3,0.9,0.4,1.6,0.4,4.1v6.8
				c0,0.4-0.3,0.6-0.6,0.6l0,0h-2.9c-0.4,0-0.6-0.3-0.6-0.6v0v-8c0-0.5,0-1-0.2-1.5c-0.4-0.7-1.1-1.2-2-1.2c-0.8,0-1.6,0.4-2.1,1.1
				c-0.4,0.6-0.5,1.4-0.5,2.1v7.5c0,0.4-0.3,0.6-0.6,0.6h-2.8c-0.4,0-0.6-0.3-0.6-0.6v0V25z"/>
			<path class="st0" d="M78.7,22.5c0.4,0,0.6,0.3,0.6,0.6v7.6c0,1.2,0,3,2.2,3c2.6,0,2.6-1.9,2.6-4.3v-6.3c0-0.4,0.3-0.6,0.6-0.6
				h2.9c0.4,0,0.6,0.3,0.6,0.6v8.5c0.1,2.9,0.1,3.3,0.1,3.7v0c0,0.1,0,0.2,0,0.3c0,0.4-0.2,0.7-0.6,0.7c0,0,0,0-0.1,0h-2.6
				c-0.3,0-0.6-0.3-0.6-0.6l-0.1-0.7c0-0.1-0.1-0.2-0.2-0.2c-0.1,0-0.1,0-0.2,0.1c-0.6,0.7-1.7,1.7-3.7,1.7c-1.9,0-3.4-0.9-4.2-1.9
				c-0.9-1.1-0.9-3-0.9-3.7v-8c0-0.4,0.3-0.6,0.6-0.6H78.7z M78.3,16.7h1.5c0.4,0,0.6,0.3,0.6,0.6v2c0,0.4-0.3,0.6-0.6,0.6
				c0,0,0,0,0,0h-1.5c-0.4,0-0.6-0.3-0.6-0.6c0,0,0,0,0,0v-1.9C77.7,17,78,16.7,78.3,16.7C78.3,16.7,78.3,16.7,78.3,16.7L78.3,16.7z
				 M83.9,16.7h1.5c0.4,0,0.6,0.3,0.6,0.7c0,0,0,0,0,0v2c0,0.4-0.3,0.6-0.6,0.6c0,0,0,0,0,0h-1.5c-0.4,0-0.6-0.3-0.6-0.6
				c0,0,0,0,0,0v-2C83.3,17,83.6,16.7,83.9,16.7C83.9,16.7,83.9,16.7,83.9,16.7L83.9,16.7z"/>
		</g>
		<path class="st0" d="M49.1,16.5H54c0.9,0,1.7,0.6,1.9,1.5l3.6,12.3c0,0.1,0.1,0.2,0.3,0.1c0.1,0,0.1-0.1,0.1-0.1l3.9-12.3
			c0.3-0.9,1.1-1.4,1.9-1.4h4.7c0.3,0,0.5,0.2,0.5,0.5v18.7c0,0.3-0.2,0.5-0.5,0.5l0,0h-3.1c-0.3,0-0.5-0.2-0.5-0.5l0,0V20.7
			c0-0.1-0.1-0.2-0.2-0.2c-0.1,0-0.2,0.1-0.2,0.2l-4.5,14.3c-0.3,0.8-1.1,1.4-1.9,1.4h-0.5c-0.9,0-1.7-0.6-1.9-1.4L53,20.6
			c0-0.1-0.1-0.2-0.2-0.1c-0.1,0-0.2,0.1-0.2,0.2v15.1c0,0.3-0.2,0.5-0.5,0.5l0,0h-2.9c-0.3,0-0.5-0.2-0.5-0.5l0,0V17.1
			C48.6,16.8,48.8,16.5,49.1,16.5L49.1,16.5z"/>
	</g>
</g>
</svg>
